<svg xmlns="http://www.w3.org/2000/svg" xmlns:xlink="http://www.w3.org/1999/xlink" width="500" zoomAndPan="magnify" viewBox="0 0 375 374.999991" height="500" preserveAspectRatio="xMidYMid meet" version="1.0"><defs><g/><clipPath id="419e390424"><path d="M 175.433594 163.574219 L 195.394531 163.574219 L 195.394531 183.535156 L 175.433594 183.535156 Z M 175.433594 163.574219 " clip-rule="nonzero"/></clipPath><clipPath id="1b4cdba068"><path d="M 185.414062 163.574219 C 179.902344 163.574219 175.433594 168.042969 175.433594 173.554688 C 175.433594 179.066406 179.902344 183.535156 185.414062 183.535156 C 190.925781 183.535156 195.394531 179.066406 195.394531 173.554688 C 195.394531 168.042969 190.925781 163.574219 185.414062 163.574219 " clip-rule="nonzero"/></clipPath><clipPath id="a4bbfd78f1"><path d="M 195.394531 163.574219 L 202.878906 163.574219 L 202.878906 183.535156 L 195.394531 183.535156 Z M 195.394531 163.574219 " clip-rule="nonzero"/></clipPath><clipPath id="f9ebd79d00"><path d="M 199.136719 163.574219 C 197.070312 163.574219 195.394531 168.042969 195.394531 173.554688 C 195.394531 179.066406 197.070312 183.535156 199.136719 183.535156 C 201.203125 183.535156 202.878906 179.066406 202.878906 173.554688 C 202.878906 168.042969 201.203125 163.574219 199.136719 163.574219 " clip-rule="nonzero"/></clipPath><clipPath id="c60f6f8c71"><path d="M 176.113281 183.535156 L 195.519531 183.535156 L 195.519531 193.550781 L 176.113281 193.550781 Z M 176.113281 183.535156 " clip-rule="nonzero"/></clipPath><clipPath id="5d65700563"><path d="M 185.753906 183.535156 C 180.429688 183.535156 176.113281 185.777344 176.113281 188.542969 C 176.113281 191.308594 180.429688 193.550781 185.753906 193.550781 C 191.078125 193.550781 195.394531 191.308594 195.394531 188.542969 C 195.394531 185.777344 191.078125 183.535156 185.753906 183.535156 " clip-rule="nonzero"/></clipPath></defs><g fill="#ffffff" fill-opacity="1"><g transform="translate(150.443674, 211.674771)"><g><path d="M 3.683594 0.136719 C 5.277344 0.136719 6.363281 -0.960938 6.992188 -1.921875 L 6.871094 -2.0625 C 6.292969 -1.414062 5.507812 -0.976562 4.492188 -0.976562 C 2.746094 -0.976562 1.648438 -2.253906 1.648438 -4.054688 C 1.648438 -4.203125 1.664062 -4.34375 1.675781 -4.492188 L 6.882812 -4.492188 C 6.882812 -5.6875 5.894531 -6.964844 4.039062 -6.964844 C 2.253906 -6.964844 0.425781 -5.507812 0.425781 -3.175781 C 0.425781 -0.949219 2.15625 0.136719 3.683594 0.136719 Z M 1.691406 -4.683594 C 1.855469 -5.757812 2.445312 -6.734375 3.613281 -6.71875 C 4.5625 -6.707031 5.316406 -5.8125 5.496094 -4.683594 Z M 1.691406 -4.683594 "/></g></g></g><g fill="#ffffff" fill-opacity="1"><g transform="translate(157.777814, 211.674771)"><g><path d="M 5.632812 0 L 7.007812 0 L 7.007812 -0.191406 C 6.554688 -0.34375 6.457031 -0.753906 6.457031 -1.746094 L 6.457031 -4.398438 C 6.457031 -6.074219 5.675781 -6.964844 4.011719 -6.964844 C 2.761719 -6.964844 1.703125 -6.335938 0.933594 -5.386719 L 1.070312 -5.261719 C 1.773438 -6.101562 2.527344 -6.429688 3.296875 -6.429688 C 4.3125 -6.429688 5.054688 -5.90625 5.082031 -4.546875 L 3.558594 -4.109375 C 1.855469 -3.628906 0.414062 -3.078125 0.414062 -1.664062 C 0.414062 -0.507812 1.265625 0.136719 2.28125 0.136719 C 3.710938 0.136719 4.699219 -1.222656 5.082031 -2.816406 L 5.082031 -0.550781 C 5.082031 -0.191406 5.277344 0 5.632812 0 Z M 1.691406 -2.144531 C 1.691406 -3.285156 2.96875 -3.75 3.613281 -3.929688 L 5.082031 -4.355469 L 5.082031 -4 C 5.070312 -2.761719 4.3125 -0.867188 2.96875 -0.867188 C 2.335938 -0.867188 1.691406 -1.238281 1.691406 -2.144531 Z M 1.691406 -2.144531 "/></g></g></g><g fill="#ffffff" fill-opacity="1"><g transform="translate(165.057011, 211.674771)"><g><path d="M 0.382812 0 L 2.886719 0 L 2.886719 -0.191406 C 2.433594 -0.34375 2.335938 -0.753906 2.335938 -1.746094 L 2.335938 -4.480469 C 2.378906 -5.167969 2.84375 -5.785156 3.1875 -6.074219 C 4.066406 -5.796875 4.589844 -5.660156 4.972656 -5.660156 C 5.605469 -5.660156 5.90625 -6.25 5.90625 -6.554688 C 5.90625 -6.84375 5.496094 -6.964844 5.027344 -6.964844 C 4.371094 -6.964844 3.847656 -6.789062 3.339844 -6.429688 C 2.898438 -6.128906 2.542969 -5.703125 2.335938 -5.222656 L 2.335938 -6.882812 L 2.199219 -6.992188 L 0.382812 -6.195312 L 0.382812 -6.003906 C 0.726562 -5.851562 0.933594 -5.714844 0.933594 -4.90625 L 0.933594 -1.746094 C 0.933594 -0.753906 0.839844 -0.34375 0.382812 -0.191406 Z M 0.382812 0 "/></g></g></g><g fill="#ffffff" fill-opacity="1"><g transform="translate(171.251194, 211.674771)"><g><path d="M 2.582031 0.136719 C 3.40625 0.136719 4.109375 -0.414062 4.835938 -1.25 L 4.699219 -1.386719 C 4.246094 -0.824219 3.777344 -0.699219 3.476562 -0.699219 C 2.871094 -0.699219 2.554688 -1.070312 2.554688 -1.921875 L 2.554688 -6.648438 L 4.628906 -6.648438 L 4.683594 -6.871094 L 2.554688 -6.871094 L 2.554688 -8.683594 L 2.335938 -8.683594 L 0.273438 -6.871094 L 0.273438 -6.648438 L 1.152344 -6.648438 L 1.152344 -1.9375 C 1.152344 -0.453125 1.648438 0.136719 2.582031 0.136719 Z M 2.582031 0.136719 "/></g></g></g><g fill="#ffffff" fill-opacity="1"><g transform="translate(176.140625, 211.674771)"><g><path d="M 0.273438 0 L 2.777344 0 L 2.777344 -0.191406 C 2.320312 -0.34375 2.226562 -0.753906 2.226562 -1.746094 L 2.226562 -5.496094 C 2.96875 -6.101562 3.558594 -6.417969 4.203125 -6.417969 C 5.222656 -6.417969 5.757812 -5.6875 5.757812 -4.453125 L 5.757812 -1.746094 C 5.757812 -0.753906 5.660156 -0.34375 5.207031 -0.191406 L 5.207031 0 L 7.707031 0 L 7.707031 -0.191406 C 7.253906 -0.34375 7.160156 -0.753906 7.160156 -1.746094 L 7.160156 -4.699219 C 7.160156 -6.308594 6.308594 -6.964844 5.042969 -6.964844 C 3.972656 -6.964844 2.980469 -6.347656 2.226562 -5.730469 L 2.226562 -11.003906 L 2.089844 -11.117188 L 0.273438 -10.320312 L 0.273438 -10.125 C 0.617188 -9.976562 0.824219 -9.835938 0.824219 -9.027344 L 0.824219 -1.746094 C 0.824219 -0.753906 0.726562 -0.34375 0.273438 -0.191406 Z M 0.273438 0 "/></g></g></g><g fill="#ffffff" fill-opacity="1"><g transform="translate(184.120281, 211.674771)"><g><path d="M 0.714844 -3.3125 L 4.300781 -3.3125 L 4.300781 -3.53125 L 0.714844 -3.53125 Z M 0.714844 -3.3125 "/></g></g></g><g fill="#ffffff" fill-opacity="1"><g transform="translate(189.133319, 211.674771)"><g><path d="M 0.617188 -5.195312 L 2.128906 0 L 2.832031 0 L 4.78125 -5.621094 L 6.691406 0 L 7.390625 0 L 8.957031 -5.195312 C 9.234375 -6.140625 9.453125 -6.539062 9.851562 -6.675781 L 9.851562 -6.871094 L 8.382812 -6.871094 L 8.382812 -6.675781 C 8.847656 -6.566406 9 -6.140625 8.726562 -5.195312 L 7.640625 -1.566406 L 5.824219 -6.871094 L 4.988281 -6.871094 L 3.144531 -1.511719 L 2.101562 -5.195312 C 1.839844 -6.140625 1.730469 -6.527344 2.183594 -6.675781 L 2.183594 -6.871094 L -0.164062 -6.871094 L -0.164062 -6.675781 C 0.136719 -6.539062 0.34375 -6.140625 0.617188 -5.195312 Z M 0.617188 -5.195312 "/></g></g></g><g fill="#ffffff" fill-opacity="1"><g transform="translate(198.857237, 211.674771)"><g><path d="M 5.632812 0 L 7.007812 0 L 7.007812 -0.191406 C 6.554688 -0.34375 6.457031 -0.753906 6.457031 -1.746094 L 6.457031 -4.398438 C 6.457031 -6.074219 5.675781 -6.964844 4.011719 -6.964844 C 2.761719 -6.964844 1.703125 -6.335938 0.933594 -5.386719 L 1.070312 -5.261719 C 1.773438 -6.101562 2.527344 -6.429688 3.296875 -6.429688 C 4.3125 -6.429688 5.054688 -5.90625 5.082031 -4.546875 L 3.558594 -4.109375 C 1.855469 -3.628906 0.414062 -3.078125 0.414062 -1.664062 C 0.414062 -0.507812 1.265625 0.136719 2.28125 0.136719 C 3.710938 0.136719 4.699219 -1.222656 5.082031 -2.816406 L 5.082031 -0.550781 C 5.082031 -0.191406 5.277344 0 5.632812 0 Z M 1.691406 -2.144531 C 1.691406 -3.285156 2.96875 -3.75 3.613281 -3.929688 L 5.082031 -4.355469 L 5.082031 -4 C 5.070312 -2.761719 4.3125 -0.867188 2.96875 -0.867188 C 2.335938 -0.867188 1.691406 -1.238281 1.691406 -2.144531 Z M 1.691406 -2.144531 "/></g></g></g><g fill="#ffffff" fill-opacity="1"><g transform="translate(206.136434, 211.674771)"><g><path d="M 2.582031 0.136719 C 3.40625 0.136719 4.109375 -0.414062 4.835938 -1.25 L 4.699219 -1.386719 C 4.246094 -0.824219 3.777344 -0.699219 3.476562 -0.699219 C 2.871094 -0.699219 2.554688 -1.070312 2.554688 -1.921875 L 2.554688 -6.648438 L 4.628906 -6.648438 L 4.683594 -6.871094 L 2.554688 -6.871094 L 2.554688 -8.683594 L 2.335938 -8.683594 L 0.273438 -6.871094 L 0.273438 -6.648438 L 1.152344 -6.648438 L 1.152344 -1.9375 C 1.152344 -0.453125 1.648438 0.136719 2.582031 0.136719 Z M 2.582031 0.136719 "/></g></g></g><g fill="#ffffff" fill-opacity="1"><g transform="translate(211.025865, 211.674771)"><g><path d="M 3.683594 0.136719 C 5.277344 0.136719 6.363281 -0.960938 6.992188 -1.921875 L 6.871094 -2.0625 C 6.292969 -1.414062 5.507812 -0.976562 4.492188 -0.976562 C 2.746094 -0.976562 1.648438 -2.253906 1.648438 -4.054688 C 1.648438 -4.203125 1.664062 -4.34375 1.675781 -4.492188 L 6.882812 -4.492188 C 6.882812 -5.6875 5.894531 -6.964844 4.039062 -6.964844 C 2.253906 -6.964844 0.425781 -5.507812 0.425781 -3.175781 C 0.425781 -0.949219 2.15625 0.136719 3.683594 0.136719 Z M 1.691406 -4.683594 C 1.855469 -5.757812 2.445312 -6.734375 3.613281 -6.71875 C 4.5625 -6.707031 5.316406 -5.8125 5.496094 -4.683594 Z M 1.691406 -4.683594 "/></g></g></g><g fill="#ffffff" fill-opacity="1"><g transform="translate(218.360005, 211.674771)"><g><path d="M 0.382812 0 L 2.886719 0 L 2.886719 -0.191406 C 2.433594 -0.34375 2.335938 -0.753906 2.335938 -1.746094 L 2.335938 -4.480469 C 2.378906 -5.167969 2.84375 -5.785156 3.1875 -6.074219 C 4.066406 -5.796875 4.589844 -5.660156 4.972656 -5.660156 C 5.605469 -5.660156 5.90625 -6.25 5.90625 -6.554688 C 5.90625 -6.84375 5.496094 -6.964844 5.027344 -6.964844 C 4.371094 -6.964844 3.847656 -6.789062 3.339844 -6.429688 C 2.898438 -6.128906 2.542969 -5.703125 2.335938 -5.222656 L 2.335938 -6.882812 L 2.199219 -6.992188 L 0.382812 -6.195312 L 0.382812 -6.003906 C 0.726562 -5.851562 0.933594 -5.714844 0.933594 -4.90625 L 0.933594 -1.746094 C 0.933594 -0.753906 0.839844 -0.34375 0.382812 -0.191406 Z M 0.382812 0 "/></g></g></g><g clip-path="url(#419e390424)"><g clip-path="url(#1b4cdba068)"><path fill="#ffffff" d="M 175.433594 163.574219 L 195.394531 163.574219 L 195.394531 183.535156 L 175.433594 183.535156 Z M 175.433594 163.574219 " fill-opacity="1" fill-rule="nonzero"/></g></g><g clip-path="url(#a4bbfd78f1)"><g clip-path="url(#f9ebd79d00)"><path fill="#ffffff" d="M 195.394531 163.574219 L 202.878906 163.574219 L 202.878906 183.535156 L 195.394531 183.535156 Z M 195.394531 163.574219 " fill-opacity="1" fill-rule="nonzero"/></g></g><g clip-path="url(#c60f6f8c71)"><g clip-path="url(#5d65700563)"><path fill="#ffffff" d="M 176.113281 183.535156 L 195.363281 183.535156 L 195.363281 193.550781 L 176.113281 193.550781 Z M 176.113281 183.535156 " fill-opacity="1" fill-rule="nonzero"/></g></g></svg>