<svg xmlns="http://www.w3.org/2000/svg" xmlns:xlink="http://www.w3.org/1999/xlink" width="500" zoomAndPan="magnify" viewBox="0 0 375 374.999991" height="500" preserveAspectRatio="xMidYMid meet" version="1.0"><defs><clipPath id="ab6c20527a"><path d="M 127.171875 121.605469 L 214.921875 121.605469 L 214.921875 209.359375 L 127.171875 209.359375 Z M 127.171875 121.605469 " clip-rule="nonzero"/></clipPath><clipPath id="7e1194c32a"><path d="M 171.046875 121.605469 C 146.8125 121.605469 127.171875 141.25 127.171875 165.484375 C 127.171875 189.714844 146.8125 209.359375 171.046875 209.359375 C 195.277344 209.359375 214.921875 189.714844 214.921875 165.484375 C 214.921875 141.25 195.277344 121.605469 171.046875 121.605469 " clip-rule="nonzero"/></clipPath><clipPath id="650ad2bd20"><path d="M 214.921875 121.605469 L 247.828125 121.605469 L 247.828125 209.359375 L 214.921875 209.359375 Z M 214.921875 121.605469 " clip-rule="nonzero"/></clipPath><clipPath id="988ddf0083"><path d="M 231.375 121.605469 C 222.289062 121.605469 214.921875 141.25 214.921875 165.484375 C 214.921875 189.714844 222.289062 209.359375 231.375 209.359375 C 240.464844 209.359375 247.828125 189.714844 247.828125 165.484375 C 247.828125 141.25 240.464844 121.605469 231.375 121.605469 " clip-rule="nonzero"/></clipPath><clipPath id="5c57a4eb03"><path d="M 130.15625 209.359375 L 215 209.359375 L 215 253.394531 L 130.15625 253.394531 Z M 130.15625 209.359375 " clip-rule="nonzero"/></clipPath><clipPath id="675ca01b19"><path d="M 172.539062 209.359375 C 149.132812 209.359375 130.15625 219.214844 130.15625 231.375 C 130.15625 243.535156 149.132812 253.394531 172.539062 253.394531 C 195.945312 253.394531 214.921875 243.535156 214.921875 231.375 C 214.921875 219.214844 195.945312 209.359375 172.539062 209.359375 " clip-rule="nonzero"/></clipPath></defs><g clip-path="url(#ab6c20527a)"><g clip-path="url(#7e1194c32a)"><path fill="#1a1a1a" d="M 127.171875 121.605469 L 214.921875 121.605469 L 214.921875 209.359375 L 127.171875 209.359375 Z M 127.171875 121.605469 " fill-opacity="1" fill-rule="nonzero"/></g></g><g clip-path="url(#650ad2bd20)"><g clip-path="url(#988ddf0083)"><path fill="#1a1a1a" d="M 214.921875 121.605469 L 247.828125 121.605469 L 247.828125 209.359375 L 214.921875 209.359375 Z M 214.921875 121.605469 " fill-opacity="1" fill-rule="nonzero"/></g></g><g clip-path="url(#5c57a4eb03)"><g clip-path="url(#675ca01b19)"><path fill="#1a1a1a" d="M 130.15625 209.359375 L 214.785156 209.359375 L 214.785156 253.394531 L 130.15625 253.394531 Z M 130.15625 209.359375 " fill-opacity="1" fill-rule="nonzero"/></g></g></svg>